<?xml version="1.0" encoding="utf-8"?>
<!-- Generator: Adobe Illustrator 27.2.0, SVG Export Plug-In . SVG Version: 6.00 Build 0)  -->
<svg version="1.1" id="Layer_1" xmlns="http://www.w3.org/2000/svg" xmlns:xlink="http://www.w3.org/1999/xlink" x="0px" y="0px"
	 viewBox="0 0 707.5 439.4" style="enable-background:new 0 0 707.5 439.4;" xml:space="preserve">
<style type="text/css">
	.st0{fill:none;stroke:#FF0000;stroke-width:0.2835;stroke-linecap:round;stroke-miterlimit:11.3386;}
	
		.st1{fill-rule:evenodd;clip-rule:evenodd;fill:#777777;stroke:#777777;stroke-width:2.0088;stroke-linecap:round;stroke-miterlimit:11.3386;}
	.st2{fill:#FFFFFF;stroke:#FF0000;stroke-width:0.2835;stroke-miterlimit:11.3386;}
</style>
<g id="svgGroup">
	<path id="front_outsideCutPath" vector-effect="non-scaling-stroke" class="st0" d="M0,223.9v26.4h8.5v18.1H0v18.1h8.5v18.1H0v18.1
		h8.5v18.1H0v18.1h8.5v18.1H0v18.1h8.5V413H0V431v8.3h29.6v-8.5h18.1v8.5h18.1v-8.5h18.1v8.5h18.1v-8.5h18.1v8.5H138v-8.5h18.1v8.5
		h18.1v-8.5h18.1v8.5h18.1v-8.5h18.1v8.5h18.1H258V413h-8.5v-18.1h8.5v-18.1h-8.5v-18.1h8.5v-18.1h-8.5v-18.1h8.5v-18.1h-8.5v-18.1
		h8.5v-18.1h-8.5v-18.1h8.5v-18.1v-8.3h-29.6v8.5h-18.1v-8.5h-18.1v8.5h-18.1v-8.5h-18.1v8.5H138v-8.5h-18.1v8.5h-18.1v-8.5H83.8
		v8.5H65.7v-8.5H47.7v8.5H29.6v-8.5H11.5H0z"/>
	<path id="front_labelLayer" vector-effect="non-scaling-stroke" class="st1" d="M160.4,347.9h-3.5V333c0-1.2-0.2-2.2-0.5-3
		c-0.2-0.4-0.4-0.8-0.8-1.2c-0.4-0.5-1-0.8-1.6-1c-0.7-0.2-1.5-0.4-2.4-0.4c-0.7,0-1.3,0.1-2,0.2c-1.4,0.3-2.5,0.9-3.3,1.8
		c-0.4,0.5-0.8,1.1-1,1.7c-0.5,1.2-0.7,2.8-0.7,4.7v12.1h-3.5v-23.1h2.8l0.6,3.2h0.2c0.7-1.1,1.6-1.9,2.8-2.5c0.1,0,0.2-0.1,0.2-0.1
		c1.1-0.5,2.2-0.8,3.4-0.9c0.3,0,0.6,0,0.9,0c0.8,0,1.6,0.1,2.3,0.2c1.6,0.3,2.9,0.9,3.9,1.8c0.7,0.6,1.2,1.4,1.5,2.3
		c0.2,0.6,0.4,1.3,0.5,2.1c0.1,0.7,0.1,1.3,0.1,2V347.9z M93.3,324.9v2.7h-5.9v20.3h-3.5v-20.3h-4.1V326l4.1-1.3v-1.3
		c0-1.1,0.1-2.2,0.3-3.2c0.7-2.9,2.4-4.6,5.2-5.1c0.6-0.1,1.3-0.2,1.9-0.2c0.5,0,1.1,0,1.6,0.1c0.8,0.1,1.7,0.3,2.7,0.6l-0.9,2.8
		c-0.4-0.1-0.9-0.3-1.3-0.4c-0.4-0.1-0.9-0.2-1.3-0.2c-0.3,0-0.6-0.1-0.9-0.1c-0.4,0-0.8,0-1.1,0.1c-0.7,0.2-1.4,0.6-1.8,1.2
		c-0.6,0.9-0.9,2.3-0.9,4.2v1.5H93.3z M178.2,345v2.7c-0.3,0.2-0.8,0.3-1.5,0.4c-0.1,0-0.1,0-0.2,0c-0.7,0.1-1.4,0.2-2,0.2
		c-3.6,0-5.7-1.5-6.4-4.5c-0.2-0.8-0.3-1.7-0.3-2.6v-13.7h-3.3v-1.7l3.3-1.5l1.5-4.9h2v5.3h6.7v2.7h-6.7v13.6c0,1.4,0.3,2.5,1,3.2
		c0.5,0.6,1.2,1,2,1.1c0.2,0,0.5,0.1,0.7,0.1c0.6,0,1.1,0,1.7-0.1c0,0,0.1,0,0.1,0c0.2,0,0.3-0.1,0.5-0.1
		C177.6,345.2,177.9,345.1,178.2,345C178.1,345.1,178.1,345,178.2,345z M110.8,324.7l-0.5,3.2c-0.8-0.2-1.5-0.3-2.2-0.3
		c-0.1,0-0.2,0-0.4,0c-1.7,0-3.3,0.7-4.5,1.9c-0.1,0.1-0.2,0.2-0.3,0.3c-1.1,1.3-1.8,2.8-1.9,4.5c0,0.4-0.1,0.8-0.1,1.2v12.4h-3.5
		v-23.1h2.9l0.4,4.3h0.2c0.4-0.7,0.8-1.3,1.3-1.9c0.5-0.6,1.1-1.1,1.8-1.6c1.2-0.8,2.5-1.2,4-1.2c0.5,0,1,0,1.4,0.1
		C109.9,324.5,110.3,324.6,110.8,324.7z M134.7,339.9c0.2-1.2,0.3-2.3,0.3-3.5c0-3.7-1-6.6-2.9-8.7c-1.1-1.3-2.6-2.2-4.2-2.7
		c-1.1-0.3-2.3-0.5-3.4-0.5c-0.8,0-1.6,0.1-2.4,0.2c-2.1,0.3-4,1.4-5.4,2.9c-0.5,0.5-0.8,1.1-1.2,1.6c-1.1,1.9-1.6,4.3-1.6,7.1
		c0,2.4,0.4,4.5,1.3,6.4c0.9,1.8,2.1,3.2,3.7,4.2c0.7,0.4,1.4,0.8,2.2,1c1.1,0.3,2.2,0.5,3.3,0.5c0.8,0,1.6-0.1,2.4-0.2
		c2.1-0.3,4-1.4,5.5-3C133.4,343.8,134.2,342,134.7,339.9z M117.4,336.4c0,0.8,0.1,1.7,0.2,2.5c0.1,0.9,0.3,1.6,0.6,2.3
		c0.2,0.7,0.6,1.3,1,1.9c1.2,1.5,2.9,2.3,5.2,2.3c0.7,0,1.4-0.1,2.1-0.3c1.2-0.3,2.3-1,3.1-2c0.5-0.7,0.9-1.5,1.2-2.3
		c0.2-0.7,0.4-1.5,0.5-2.3c0.1-0.7,0.1-1.4,0.1-2.1c0-2.9-0.6-5.2-1.8-6.7c-0.9-1.1-2.2-1.9-3.6-2.1c-0.6-0.1-1.1-0.2-1.7-0.2
		c-0.7,0-1.4,0.1-2.1,0.2c-1.2,0.3-2.3,1-3.1,2c-0.5,0.7-0.9,1.4-1.1,2.2C117.6,333.1,117.4,334.6,117.4,336.4z"/>
	<path id="left_outsideCutPath" vector-effect="non-scaling-stroke" class="st0" d="M275,223.9v26.4h-8.5v18.1h8.5v18.1h-8.5v18.1
		h8.5v18.1h-8.5v18.1h8.5v18.1h-8.5v18.1h8.5v18.1h-8.5V413h8.5V431v8.3h15.6v-8.5h18.1v8.5h18.1v-8.5h18.1v8.5h18.1v-8.5h18.1v8.5
		h18.1v-8.5H417v8.5h15.6V413h8.5v-18.1h-8.5v-18.1h8.5v-18.1h-8.5v-18.1h8.5v-18.1h-8.5v-18.1h8.5v-18.1h-8.5v-18.1h8.5v-18.1h-8.5
		v-18.1v-8.3H417v8.5h-18.1v-8.5h-18.1v8.5h-18.1v-8.5h-18.1v8.5h-18.1v-8.5h-18.1v8.5h-18.1v-8.5H275z"/>
	<path id="left_labelLayer" vector-effect="non-scaling-stroke" class="st1" d="M366.2,326.2v2.2h-4.8v16.5h-2.8v-16.5h-3.3v-1.3
		l3.3-1v-1c0-4,1.5-6.2,4.5-6.8c0.5-0.1,1-0.1,1.5-0.1c0.4,0,0.9,0,1.3,0.1c0.4,0.1,0.9,0.1,1.3,0.3c0.3,0.1,0.6,0.1,0.9,0.2
		l-0.7,2.3c-0.4-0.1-0.7-0.2-1.1-0.3c-0.6-0.2-1.2-0.2-1.7-0.2c-0.3,0-0.6,0-0.9,0.1c-0.6,0.1-1.1,0.5-1.4,1
		c-0.2,0.3-0.3,0.6-0.4,0.9c-0.2,0.6-0.3,1.3-0.3,2.1c0,0.1,0,0.3,0,0.4v1.2H366.2z M352.9,334.2v1.8h-12.9c0,0.6,0.1,1.3,0.2,1.9
		c0.1,0.7,0.3,1.3,0.6,1.9c0.2,0.5,0.5,0.9,0.9,1.2c1.1,1.1,2.5,1.7,4.4,1.7c2,0,4-0.4,6-1.3v2.5c-0.5,0.2-1,0.4-1.6,0.6
		c-0.4,0.1-0.9,0.3-1.3,0.3c-0.4,0.1-0.8,0.1-1.2,0.2c-0.6,0.1-1.3,0.1-2.1,0.1c-0.9,0-1.9-0.1-2.8-0.3c-1.4-0.4-2.8-1.1-3.8-2.2
		c-1.6-1.7-2.4-4-2.4-7c0-1,0.1-2,0.3-2.9c0.2-1.2,0.6-2.3,1.2-3.2c0.2-0.4,0.5-0.7,0.7-1c1.3-1.6,3.2-2.5,5.3-2.6
		c0.2,0,0.5,0,0.7,0c0.8,0,1.6,0.1,2.4,0.3c1.2,0.3,2.3,1,3.1,2C352.3,329.7,352.9,331.7,352.9,334.2z M378.2,342.5v2.2
		c-0.3,0.1-0.8,0.3-1.4,0.4c-0.3,0-0.5,0.1-0.8,0.1c-0.3,0-0.5,0-0.7,0c0,0-0.1,0-0.1,0c-0.7,0-1.5-0.1-2.2-0.3
		c-1.6-0.5-2.6-1.6-3-3.3c-0.2-0.7-0.2-1.4-0.2-2.1v-11.1h-2.7V327l2.7-1.2l1.2-4h1.6v4.3h5.4v2.2h-5.4v11c0,0.8,0.1,1.5,0.4,2
		c0.1,0.2,0.2,0.4,0.4,0.6c0.4,0.5,1,0.8,1.6,0.9c0.2,0,0.4,0,0.6,0c0.5,0,0.9,0,1.4-0.1c0,0,0.1,0,0.1,0
		C377.5,342.7,377.9,342.6,378.2,342.5C378.2,342.5,378.2,342.5,378.2,342.5z M332.2,318.3v26.5h-2.8v-26.5H332.2z M340.1,333.7h9.8
		c0-1.2-0.2-2.2-0.5-3.1c-0.2-0.4-0.4-0.7-0.6-1.1c-0.6-0.7-1.4-1.2-2.3-1.3c-0.4-0.1-0.7-0.1-1.1-0.1c-0.5,0-1.1,0.1-1.6,0.2
		c-0.8,0.2-1.4,0.7-2,1.2c-0.8,0.9-1.3,2.1-1.5,3.6C340.2,333.4,340.1,333.5,340.1,333.7z"/>
	<path id="top_outsideCutPath" vector-effect="non-scaling-stroke" class="st0" d="M458.1,273.3v15.6h-8.5v18.1h8.5V325h-8.5V343
		h8.5v18.1h-8.5v18.1h8.5v18.1h-8.5v18.1h8.5v15.6h21.1v8.5h18.1v-8.5h18.1v8.5h18.1v-8.5h18.1v8.5h18.1v-8.5h18.1v8.5h18.1v-8.5
		h18.1v8.5h18.1v-8.5h18.1v8.5h18.1v-8.5H696h3v-15.6h8.5v-18.1H699v-18.1h8.5v-18.1H699V343h8.5V325H699v-18.1h8.5v-18.1H699v-15.6
		h-21.1v-8.5h-18.1v8.5h-18.1v-8.5h-18.1v8.5h-18.1v-8.5h-18.1v8.5h-18.1v-8.5h-18.1v8.5h-18.1v-8.5h-18.1v8.5h-18.1v-8.5h-18.1v8.5
		h-18.1H458.1z"/>
	<path id="top_labelLayer" vector-effect="non-scaling-stroke" class="st1" d="M591.1,357h-0.2c0.1,1.1,0.2,2.1,0.2,3.1v7.7h-2.8
		v-27.1h2.3l0.4,2.6h0.1c0.3-0.5,0.7-0.9,1.1-1.3c0.4-0.4,0.9-0.7,1.4-1c0.6-0.3,1.3-0.5,2-0.6c0.4-0.1,0.9-0.1,1.3-0.1
		c0.8,0,1.7,0.1,2.5,0.3c1.3,0.4,2.5,1.1,3.3,2.2c0.7,0.8,1.2,1.8,1.5,2.8c0.2,0.8,0.4,1.7,0.5,2.7c0,0.5,0.1,1.1,0.1,1.6
		c0,2.2-0.3,4-1,5.5c-0.3,0.6-0.6,1.2-1,1.7c-1.2,1.5-2.9,2.4-4.8,2.5c-0.3,0-0.6,0-0.9,0c-0.7,0-1.5-0.1-2.2-0.3
		c-0.4-0.1-0.8-0.2-1.2-0.4C592.6,358.6,591.7,357.9,591.1,357L591.1,357z M563.4,357v2.2c-0.3,0.1-0.8,0.3-1.4,0.4
		c-0.3,0-0.5,0.1-0.8,0.1c-0.3,0-0.5,0-0.7,0c0,0-0.1,0-0.1,0c-0.7,0-1.5-0.1-2.2-0.3c-1.6-0.5-2.6-1.6-3-3.3
		c-0.2-0.7-0.2-1.4-0.2-2.1v-11.1h-2.7v-1.4l2.7-1.2l1.2-4h1.6v4.3h5.4v2.2h-5.4v11c0,0.8,0.1,1.5,0.4,2c0.1,0.2,0.2,0.4,0.4,0.6
		c0.4,0.5,1,0.8,1.6,0.9c0.2,0,0.4,0,0.6,0c0.5,0,0.9,0,1.4-0.1c0,0,0.1,0,0.1,0C562.8,357.2,563.1,357.1,563.4,357
		C563.4,357,563.4,357,563.4,357z M581,357.2c0.4-0.4,0.7-0.8,0.9-1.3c0.9-1.6,1.4-3.5,1.4-5.8c0-1.2-0.1-2.3-0.4-3.3
		c-0.3-1.4-1-2.7-1.9-3.7c-0.9-1-2.1-1.8-3.4-2.2c-0.9-0.3-1.8-0.4-2.8-0.4c-0.7,0-1.3,0.1-2,0.2c-1.7,0.3-3.2,1.1-4.4,2.4
		c-1,1.1-1.7,2.6-2,4.3c-0.2,0.9-0.3,1.9-0.3,2.8c0,0.8,0.1,1.5,0.2,2.3c0.2,1,0.5,2,0.9,2.9c0.1,0.1,0.1,0.3,0.2,0.4
		c0.6,1.2,1.6,2.3,2.8,3c0.6,0.3,1.2,0.6,1.8,0.8c0.9,0.3,1.7,0.4,2.6,0.4c0.6,0,1.3-0.1,1.9-0.2C578.3,359.3,579.8,358.4,581,357.2
		z M569.7,353.9c0.2,0.5,0.5,1.1,0.8,1.5c1,1.3,2.4,1.9,4.2,1.9c0.6,0,1.2-0.1,1.7-0.2c1-0.3,1.9-0.8,2.5-1.7c1-1.2,1.4-3.1,1.4-5.5
		c0-1.5-0.2-2.8-0.6-3.9c-0.2-0.6-0.5-1.1-0.8-1.5c-0.7-0.9-1.7-1.5-2.9-1.7c-0.4-0.1-0.9-0.1-1.4-0.1c-0.6,0-1.1,0.1-1.7,0.2
		c-1,0.2-1.9,0.8-2.5,1.6c-0.9,1.2-1.4,3-1.4,5.4C569.1,351.6,569.3,352.9,569.7,353.9z M591.1,349.4v0.6c0,0.6,0,1.3,0.1,1.9
		c0.1,1.3,0.4,2.3,0.9,3.1c0.1,0.2,0.2,0.4,0.4,0.6c0.9,1.1,2.3,1.7,4.2,1.7c0.6,0,1.3-0.1,1.9-0.3c0.8-0.3,1.4-0.9,1.9-1.6
		c0.4-0.6,0.7-1.3,0.9-2c0.2-0.6,0.3-1.3,0.4-2c0-0.5,0.1-0.9,0.1-1.4c0-0.7,0-1.4-0.1-2c-0.2-1.4-0.6-2.5-1.2-3.3
		c-0.8-1.1-1.9-1.7-3.2-1.8c-0.2,0-0.4,0-0.6,0c-0.5,0-1,0-1.5,0.1c-0.6,0.1-1.1,0.3-1.5,0.5c-0.4,0.2-0.8,0.6-1.1,0.9
		c-0.8,1-1.2,2.5-1.3,4.6C591.1,349.1,591.1,349.2,591.1,349.4z"/>
	<path id="back_outsideCutPath" vector-effect="non-scaling-stroke" class="st0" d="M0,0v26.4h8.5v18.1H0v18.1h8.5v18.1H0v18.1h8.5
		v18.1H0v18.1h8.5v18.1H0V171h8.5V189H0v18.1v8.3h29.6v-8.5h18.1v8.5h18.1v-8.5h18.1v8.5h18.1v-8.5h18.1v8.5H138v-8.5h18.1v8.5h18.1
		v-8.5h18.1v8.5h18.1v-8.5h18.1v8.5h18.1H258V189h-8.5V171h8.5v-18.1h-8.5v-18.1h8.5v-18.1h-8.5V98.7h8.5V80.6h-8.5V62.5h8.5V44.5
		h-8.5V26.4h8.5V8.3V0h-29.6v8.5h-18.1V0h-18.1v8.5h-18.1V0h-18.1v8.5H138V0h-18.1v8.5h-18.1V0H83.8v8.5H65.7V0H47.7v8.5H29.6V0
		H11.5H0z"/>
	<path id="back_labelLayer" vector-effect="non-scaling-stroke" class="st1" d="M158.5,112.1h0.2c0.2-0.2,0.3-0.5,0.5-0.7
		c0.4-0.5,0.9-1.1,1.4-1.7c0.3-0.3,0.5-0.6,0.8-0.9l7.4-7.9h4.1l-9.3,9.8l10,13.2h-4.2l-8.1-10.9l-2.6,2.3v8.6h-3.4V91.1h3.4v17.4
		C158.6,109.3,158.6,110.4,158.5,112.1C158.5,112,158.5,112,158.5,112.1z M87.8,120.9h-0.3l-0.7,3h-2.5V91.1h3.5v8
		c0,0.8,0,1.6,0,2.5c0,0.8-0.1,1.6-0.1,2.3h0.2c1.3-1.9,3.5-3.2,5.8-3.4c0.5-0.1,1-0.1,1.4-0.1c1,0,2,0.1,3,0.4
		c1.6,0.5,3,1.4,4.1,2.7c0.8,1,1.4,2.2,1.8,3.5c0.3,1,0.5,2,0.6,3.1c0.1,0.7,0.1,1.4,0.1,2.2c0,1.2-0.1,2.3-0.3,3.4
		c-0.2,1.2-0.5,2.3-1,3.3c-0.3,0.7-0.8,1.4-1.3,2.1c-1.4,1.8-3.6,2.9-5.9,3.1c-0.4,0-0.8,0.1-1.2,0.1c-0.9,0-1.8-0.1-2.7-0.3
		c-0.5-0.1-1-0.3-1.4-0.5C89.7,122.9,88.6,122.1,87.8,120.9z M127.5,123.9h-2.6l-0.7-3.3H124c-0.8,1-1.6,1.8-2.4,2.4
		c-0.3,0.2-0.7,0.4-1,0.6c-0.9,0.4-2.1,0.7-3.4,0.7c-0.3,0-0.6,0-0.9,0c-0.7,0-1.5-0.1-2.2-0.2c-0.9-0.2-1.7-0.5-2.4-0.9
		c-0.3-0.2-0.6-0.4-0.8-0.6c-1.3-1.2-1.9-2.9-1.9-5c-0.1-2.4,1.3-4.7,3.4-5.7c1.8-1,4.4-1.5,7.7-1.6l3.9-0.1v-1.4
		c0-1.8-0.4-3.1-1.2-4c-0.8-0.9-2-1.3-3.7-1.3c-0.9,0-1.8,0.1-2.6,0.3c-1.2,0.3-2.5,0.8-3.9,1.4l-1.1-2.7c1-0.5,2-1,3.1-1.3
		c0.2-0.1,0.4-0.1,0.6-0.2c1.3-0.3,2.7-0.5,4.1-0.5c1.7,0,3.2,0.2,4.3,0.7c0.7,0.3,1.3,0.6,1.8,1.1c1.3,1.2,2,3.2,2,5.9V123.9z
		 M150.1,101.6l-1.1,3c-0.6-0.2-1.1-0.4-1.7-0.6c-0.3-0.1-0.6-0.1-0.8-0.2c-0.9-0.2-1.7-0.3-2.4-0.3c-4.7,0-7,3-7,9
		c0,2.8,0.6,5,1.7,6.5c0.9,1.2,2.2,1.9,3.6,2.1c0.5,0.1,1,0.1,1.5,0.1c1.4,0,2.7-0.2,4-0.6c0.6-0.2,1.3-0.4,1.9-0.7v3.1
		c-1.3,0.7-2.9,1.1-4.9,1.2c-0.3,0-0.6,0-1,0c-1.1,0-2.1-0.1-3.2-0.4c-1.8-0.4-3.4-1.4-4.6-2.7c-1.6-1.8-2.5-4.2-2.7-7.2
		c0-0.5-0.1-1-0.1-1.5c0-1.2,0.1-2.3,0.3-3.5c0.2-1.3,0.6-2.5,1.2-3.5c0.4-0.7,0.8-1.4,1.3-1.9c1.3-1.5,3-2.5,5-2.8
		c1-0.2,2-0.3,3-0.3c1.1,0,2.2,0.1,3.3,0.4c0.3,0.1,0.6,0.1,1,0.2C149.1,101.2,149.6,101.4,150.1,101.6
		C150,101.6,150.1,101.6,150.1,101.6z M94.5,103.4c-0.6,0-1.3,0.1-1.9,0.2c-1.4,0.3-2.5,0.9-3.3,1.9c-0.4,0.5-0.7,1.1-0.9,1.6
		c-0.5,1.3-0.7,3.1-0.7,5.3c0,0.8,0,1.6,0.1,2.4c0.2,1.6,0.5,2.9,1.1,3.9c0.1,0.2,0.3,0.5,0.5,0.7c1,1.3,2.5,1.9,4.5,2.1
		c0.2,0,0.5,0,0.7,0c0.7,0,1.3-0.1,2-0.3c1.2-0.3,2.2-1.1,2.8-2.1c0.8-1.1,1.2-2.6,1.4-4.4c0.1-0.8,0.1-1.6,0.1-2.3
		c0-2.8-0.5-5-1.4-6.5c-0.1-0.1-0.1-0.2-0.2-0.2c-0.8-1.1-1.9-1.8-3.2-2.1C95.6,103.4,95.1,103.4,94.5,103.4z M124,114.6v-2.1
		l-3.5,0.1c-0.7,0-1.4,0.1-2,0.2c-1.3,0.2-2.4,0.4-3.3,0.8c-0.2,0.1-0.5,0.2-0.7,0.4c-1,0.6-1.6,1.6-1.8,2.7c0,0.3-0.1,0.6-0.1,0.9
		c0,0.4,0,0.8,0.1,1.1c0.1,0.6,0.4,1.1,0.8,1.5c0.1,0.1,0.2,0.2,0.3,0.3c0.4,0.4,0.9,0.6,1.4,0.8c0.4,0.1,0.8,0.2,1.2,0.2
		c0.2,0,0.4,0,0.5,0c0.7,0,1.4-0.1,2.1-0.2c1.2-0.3,2.2-0.8,3-1.6C123.4,118.4,124,116.8,124,114.6C124,114.6,124,114.6,124,114.6z"
		/>
	<path id="right_outsideCutPath" vector-effect="non-scaling-stroke" class="st0" d="M275,0v26.4h-8.5v18.1h8.5v18.1h-8.5v18.1h8.5
		v18.1h-8.5v18.1h8.5v18.1h-8.5v18.1h8.5V171h-8.5V189h8.5v18.1v8.3h15.6v-8.5h18.1v8.5h18.1v-8.5h18.1v8.5h18.1v-8.5h18.1v8.5h18.1
		v-8.5H417v8.5h15.6V189h8.5V171h-8.5v-18.1h8.5v-18.1h-8.5v-18.1h8.5V98.7h-8.5V80.6h8.5V62.5h-8.5V44.5h8.5V26.4h-8.5V8.3V0H417
		v8.5h-18.1V0h-18.1v8.5h-18.1V0h-18.1v8.5h-18.1V0h-18.1v8.5h-18.1V0H275z"/>
	<path id="right_labelLayer" vector-effect="non-scaling-stroke" class="st1" d="M375.5,116.8h-2.8v-12.1c0-0.4,0-0.8-0.1-1.3
		c-0.1-0.4-0.2-0.8-0.3-1.2c-0.1-0.4-0.4-0.7-0.6-1c-0.6-0.6-1.4-1-2.5-1.1c-0.3,0-0.5,0-0.8,0c-0.5,0-1.1,0-1.6,0.1
		c-1.2,0.2-2.1,0.7-2.7,1.5c-0.3,0.4-0.6,0.9-0.8,1.4c-0.3,0.9-0.5,1.9-0.5,3.2c0,0.2,0,0.4,0,0.6v9.8h-2.8V90.3h2.8v8
		c0,0.7,0,1.3-0.1,1.8c0,0.2,0,0.4-0.1,0.6h0.2c0.5-0.8,1.2-1.4,2-1.9c0.1-0.1,0.3-0.1,0.4-0.2c0.7-0.4,1.6-0.6,2.4-0.7
		c0.4,0,0.8-0.1,1.1-0.1c0.6,0,1.3,0,1.9,0.2c1.3,0.2,2.4,0.7,3.2,1.5c0.9,0.8,1.4,2.1,1.6,3.7c0.1,0.5,0.1,1,0.1,1.5V116.8z
		 M349.6,98.1h6.5v1.8l-3.5,0.4c0.3,0.3,0.5,0.8,0.7,1.3c0,0.1,0.1,0.2,0.1,0.3c0.2,0.4,0.3,0.9,0.3,1.3c0,0.3,0.1,0.6,0.1,0.9
		c0,0.7-0.1,1.4-0.3,2c-0.3,0.9-0.8,1.7-1.6,2.4c-1.1,1-2.6,1.5-4.5,1.6c-0.2,0-0.4,0-0.6,0c-0.4,0-0.7,0-1.1-0.1
		c-0.2,0-0.3,0-0.5-0.1c-1.2,0.6-1.8,1.4-1.8,2.4c0,0.2,0,0.3,0.1,0.5c0.1,0.3,0.3,0.5,0.6,0.7c0.1,0.1,0.3,0.1,0.4,0.2
		c0.3,0.1,0.7,0.1,1.2,0.2c0.2,0,0.4,0,0.6,0h3.3c0.6,0,1.2,0,1.8,0.1c0.6,0.1,1.2,0.2,1.7,0.4c0.4,0.2,0.9,0.4,1.2,0.7
		c1.1,0.9,1.6,2.1,1.6,3.7c0,0.7-0.1,1.4-0.4,2.1c-0.4,1.1-1.1,1.9-2.1,2.6c-1.2,0.8-2.7,1.3-4.6,1.5c-0.9,0.1-1.8,0.2-2.7,0.2
		c-0.7,0-1.4,0-2.1-0.1c-0.7-0.1-1.4-0.2-2-0.5c-0.6-0.2-1.1-0.4-1.6-0.8c-0.6-0.4-1.1-0.9-1.5-1.6c-0.4-0.7-0.5-1.4-0.5-2.3
		c0-1.1,0.4-2.1,1.1-3c0.5-0.5,1-1,1.7-1.2c0.4-0.2,0.9-0.3,1.4-0.5c-0.5-0.2-0.8-0.5-1.1-0.9c0,0,0-0.1-0.1-0.1
		c-0.3-0.4-0.5-0.9-0.5-1.4c0-0.1,0-0.1,0-0.2c0-0.4,0.1-0.7,0.2-1c0.1-0.3,0.2-0.5,0.4-0.7c0.2-0.2,0.3-0.4,0.5-0.6
		c0.2-0.2,0.4-0.4,0.7-0.5c0.2-0.1,0.4-0.2,0.5-0.4c-0.9-0.4-1.6-1-2.2-1.7c-0.1-0.1-0.1-0.2-0.2-0.3c-0.5-0.8-0.8-1.8-0.9-2.8
		c0-0.2,0-0.3,0-0.5c0-0.7,0.1-1.3,0.2-1.9c0.2-1.1,0.8-2.1,1.6-2.8c0.7-0.6,1.5-1,2.3-1.3c0.6-0.2,1.3-0.3,2-0.4c0.3,0,0.6,0,0.9,0
		c0.5,0,1,0,1.4,0.1C348.8,97.9,349.2,98,349.6,98.1z M389.9,114.5v2.2c-0.3,0.1-0.8,0.3-1.4,0.4c-0.3,0-0.5,0.1-0.8,0.1
		c-0.3,0-0.5,0-0.7,0c0,0-0.1,0-0.1,0c-0.7,0-1.5-0.1-2.2-0.3c-1.6-0.5-2.6-1.6-3-3.3c-0.2-0.7-0.2-1.4-0.2-2.1v-11.1h-2.7v-1.4
		l2.7-1.2l1.2-4h1.6v4.3h5.4v2.2h-5.4v11c0,0.8,0.1,1.5,0.4,2c0.1,0.2,0.2,0.4,0.4,0.6c0.4,0.5,1,0.8,1.6,0.9c0.2,0,0.4,0,0.6,0
		c0.5,0,0.9,0,1.4-0.1c0,0,0.1,0,0.1,0C389.2,114.6,389.6,114.5,389.9,114.5C389.9,114.5,389.9,114.5,389.9,114.5z M328.4,98
		l-0.4,2.6c-0.3-0.1-0.6-0.1-0.9-0.2c-0.3,0-0.6-0.1-0.8-0.1c-0.1,0-0.2,0-0.3,0c-1.4,0-2.7,0.6-3.6,1.6c-0.1,0.1-0.2,0.2-0.3,0.3
		c-0.9,1-1.4,2.3-1.6,3.6c0,0.3-0.1,0.6-0.1,1v10h-2.8V98.1h2.3l0.3,3.5h0.1c0.3-0.5,0.7-1.1,1.1-1.5c0.4-0.5,0.9-0.9,1.4-1.3
		c1-0.7,2.1-1,3.2-1c0.4,0,0.8,0,1.2,0C327.7,97.8,328,97.9,328.4,98z M334.7,98.1v18.7h-2.8V98.1H334.7z M348.6,116.4h-3.4
		c-1.3,0-2.3,0.3-3,0.9c-0.5,0.4-0.9,1-1,1.7c-0.1,0.3-0.1,0.6-0.1,1c0,0.4,0.1,0.7,0.2,1.1c0.2,0.5,0.5,0.8,0.9,1.1
		c0.1,0,0.1,0.1,0.2,0.1c0.3,0.2,0.7,0.4,1.1,0.5c0.7,0.2,1.6,0.3,2.6,0.3c0.6,0,1.2,0,1.9-0.1c1.2-0.1,2.3-0.4,3-0.8
		c0.1-0.1,0.3-0.1,0.4-0.2c0.4-0.2,0.7-0.5,1-0.8c0.5-0.6,0.8-1.3,0.8-2.1c0-0.3,0-0.5-0.1-0.8c-0.1-0.6-0.4-1.1-0.9-1.3
		c-0.2-0.1-0.4-0.2-0.6-0.3c-0.5-0.1-1-0.2-1.8-0.3C349.3,116.4,349,116.4,348.6,116.4z M343.3,106.5c0.1,0.2,0.3,0.4,0.5,0.5
		c0.7,0.6,1.6,0.9,2.7,1c0.1,0,0.3,0,0.4,0c0.5,0,1.1-0.1,1.6-0.2c1.2-0.3,2-1.1,2.3-2.3c0.1-0.5,0.2-1,0.2-1.5
		c0-0.6-0.1-1.1-0.2-1.7c-0.4-1.2-1.2-2-2.4-2.4c-0.5-0.1-1-0.2-1.6-0.2c-1,0-1.9,0.2-2.5,0.6c-0.2,0.1-0.4,0.3-0.6,0.4
		c-0.6,0.6-1,1.5-1,2.6c0,0.2,0,0.4,0,0.6C342.7,105.1,342.9,105.9,343.3,106.5z M331.7,93c0-0.6,0.2-1.1,0.5-1.4
		c0.3-0.3,0.7-0.4,1.1-0.4c0,0,0.1,0,0.1,0c0.5,0,0.8,0.2,1.2,0.5c0.2,0.2,0.3,0.4,0.4,0.6c0.1,0.2,0.1,0.3,0.1,0.5
		c0,0.1,0,0.2,0,0.3c0,0.2,0,0.4,0,0.5c0,0.2-0.1,0.4-0.2,0.5c-0.1,0.1-0.2,0.3-0.3,0.4c-0.3,0.3-0.7,0.5-1.2,0.5
		c-0.2,0-0.4,0-0.6-0.1c-0.2-0.1-0.4-0.2-0.6-0.4C331.8,94.1,331.7,93.7,331.7,93z"/>
	<path id="bottom_outsideCutPath" vector-effect="non-scaling-stroke" class="st0" d="M458.1,90.1v15.6h-8.5v18.1h8.5v18.1h-8.5
		v18.1h8.5V178h-8.5v18.1h8.5v18.1h-8.5v18.1h8.5v15.6h21.1v8.5h18.1v-8.5h18.1v8.5h18.1v-8.5h18.1v8.5h18.1v-8.5h18.1v8.5h18.1
		v-8.5h18.1v8.5h18.1v-8.5h18.1v8.5h18.1v-8.5H696h3v-15.6h8.5v-18.1H699v-18.1h8.5V178H699v-18.1h8.5v-18.1H699v-18.1h8.5v-18.1
		H699V90.1h-21.1v-8.5h-18.1v8.5h-18.1v-8.5h-18.1v8.5h-18.1v-8.5h-18.1v8.5h-18.1v-8.5h-18.1v8.5h-18.1v-8.5h-18.1v8.5h-18.1v-8.5
		h-18.1v8.5h-18.1H458.1z"/>
	<path id="bottom_labelLayer" vector-effect="non-scaling-stroke" class="st1" d="M636,182h-2.8v-12.2c0-0.9-0.1-1.7-0.4-2.4
		c-0.1-0.4-0.3-0.7-0.6-1c-0.6-0.7-1.4-1-2.5-1.1c-0.2,0-0.3,0-0.5,0c-0.5,0-1,0-1.5,0.1c-0.6,0.1-1.1,0.3-1.5,0.6
		c-0.3,0.2-0.6,0.5-0.9,0.8c-0.3,0.4-0.6,0.9-0.8,1.4c-0.3,0.9-0.5,1.9-0.5,3.2c0,0,0,0,0,0V182h-2.8v-12.2c0-0.9-0.1-1.7-0.4-2.4
		c-0.1-0.4-0.3-0.7-0.6-1c-0.4-0.4-0.8-0.7-1.4-0.9c-0.3-0.1-0.7-0.2-1.1-0.2c-0.2,0-0.4,0-0.5,0c-0.5,0-1,0-1.5,0.1
		c-0.6,0.1-1.1,0.3-1.6,0.6c-0.3,0.2-0.6,0.5-0.9,0.8c-0.3,0.4-0.5,0.9-0.7,1.3c-0.3,0.9-0.5,1.9-0.5,3.2c0,0.2,0,0.4,0,0.7v9.8
		h-2.8v-18.7h2.3l0.5,2.6h0.1c0.5-0.9,1.3-1.6,2.3-2.1c0.8-0.4,1.7-0.7,2.7-0.7c0.2,0,0.4,0,0.6,0c1.8,0,3.2,0.4,4.3,1.2
		c0.6,0.5,1.2,1.2,1.5,2h0.1c0.6-1,1.4-1.7,2.4-2.3c0.8-0.4,1.7-0.7,2.6-0.8c0.3,0,0.7-0.1,1-0.1c0.6,0,1.2,0,1.8,0.2
		c1.2,0.2,2.2,0.7,3,1.5c0.5,0.5,0.8,1.1,1,1.7c0.2,0.5,0.3,1.1,0.4,1.7c0.1,0.6,0.1,1.2,0.1,1.8V182z M523.9,179.6h-0.2l-0.6,2.4
		h-2v-26.5h2.8v6.4c0,1.4,0,2.7-0.1,3.8c0,0,0,0.1,0,0.1h0.1c1.1-1.6,2.8-2.6,4.7-2.7c0.4,0,0.8-0.1,1.2-0.1c0.8,0,1.6,0.1,2.4,0.3
		c1.3,0.4,2.4,1.1,3.3,2.2c1.1,1.3,1.7,3.1,2,5.4c0.1,0.6,0.1,1.2,0.1,1.8c0,2.2-0.3,4-1,5.5c-0.3,0.6-0.6,1.2-1,1.7
		c-1.2,1.5-2.9,2.4-4.8,2.5c-0.3,0-0.6,0-0.9,0c-0.7,0-1.5-0.1-2.2-0.3c-0.4-0.1-0.8-0.2-1.2-0.4
		C525.5,181.3,524.6,180.5,523.9,179.6z M572.2,179.7v2.2c-0.3,0.1-0.8,0.3-1.4,0.4c-0.3,0-0.5,0.1-0.8,0.1c-0.3,0-0.5,0-0.7,0
		c0,0-0.1,0-0.1,0c-0.7,0-1.5-0.1-2.2-0.3c-1.6-0.5-2.6-1.6-3-3.3c-0.2-0.7-0.2-1.4-0.2-2.1v-11.1h-2.7v-1.4l2.7-1.2l1.2-4h1.6v4.3
		h5.4v2.2h-5.4v11c0,0.8,0.1,1.5,0.4,2c0.1,0.2,0.2,0.4,0.4,0.6c0.4,0.5,1,0.8,1.6,0.9c0.2,0,0.4,0,0.6,0c0.5,0,0.9,0,1.4-0.1
		c0,0,0.1,0,0.1,0C571.5,179.9,571.9,179.8,572.2,179.7C572.2,179.7,572.2,179.7,572.2,179.7z M584.5,179.7v2.2
		c-0.3,0.1-0.8,0.3-1.4,0.4c-0.3,0-0.5,0.1-0.8,0.1c-0.3,0-0.5,0-0.7,0c0,0-0.1,0-0.1,0c-0.7,0-1.5-0.1-2.2-0.3
		c-1.6-0.5-2.6-1.6-3-3.3c-0.2-0.7-0.2-1.4-0.2-2.1v-11.1h-2.7v-1.4l2.7-1.2l1.2-4h1.6v4.3h5.4v2.2H579v11c0,0.8,0.1,1.5,0.4,2
		c0.1,0.2,0.2,0.4,0.4,0.6c0.4,0.5,1,0.8,1.6,0.9c0.2,0,0.4,0,0.6,0c0.5,0,0.9,0,1.4-0.1c0,0,0.1,0,0.1,0
		C583.9,179.9,584.2,179.8,584.5,179.7C584.5,179.7,584.5,179.7,584.5,179.7z M556.3,179.8c0.4-0.4,0.7-0.8,0.9-1.3
		c0.9-1.6,1.4-3.5,1.4-5.8c0-1.2-0.1-2.3-0.4-3.3c-0.3-1.4-1-2.7-1.9-3.7c-0.9-1-2.1-1.8-3.4-2.2c-0.9-0.3-1.8-0.4-2.8-0.4
		c-0.7,0-1.3,0.1-2,0.2c-1.7,0.3-3.2,1.1-4.4,2.4c-1,1.1-1.7,2.6-2,4.3c-0.2,0.9-0.3,1.9-0.3,2.8c0,0.8,0.1,1.5,0.2,2.3
		c0.2,1,0.5,2,0.9,2.9c0.1,0.1,0.1,0.3,0.2,0.4c0.6,1.2,1.6,2.3,2.8,3c0.6,0.3,1.2,0.6,1.8,0.8c0.9,0.3,1.7,0.4,2.6,0.4
		c0.6,0,1.3,0,1.9-0.2C553.6,182,555.2,181.1,556.3,179.8z M602.1,179.8c0.4-0.4,0.7-0.8,0.9-1.3c0.9-1.6,1.4-3.5,1.4-5.8
		c0-1.2-0.1-2.3-0.4-3.3c-0.3-1.4-1-2.7-1.9-3.7c-0.9-1-2.1-1.8-3.4-2.2c-0.9-0.3-1.8-0.4-2.8-0.4c-0.7,0-1.3,0.1-2,0.2
		c-1.7,0.3-3.2,1.1-4.4,2.4c-1,1.1-1.7,2.6-2,4.3c-0.2,0.9-0.3,1.9-0.3,2.8c0,0.8,0.1,1.5,0.2,2.3c0.2,1,0.5,2,0.9,2.9
		c0.1,0.1,0.1,0.3,0.2,0.4c0.6,1.2,1.6,2.3,2.8,3c0.6,0.3,1.2,0.6,1.8,0.8c0.9,0.3,1.7,0.4,2.6,0.4c0.6,0,1.3,0,1.9-0.2
		C599.4,182,600.9,181.1,602.1,179.8z M545,176.6c0.2,0.5,0.5,1.1,0.8,1.5c1,1.3,2.4,1.9,4.2,1.9c0.6,0,1.2-0.1,1.7-0.2
		c1-0.3,1.9-0.8,2.5-1.7c1-1.2,1.4-3.1,1.4-5.5c0-1.5-0.2-2.8-0.6-3.9c-0.2-0.6-0.5-1.1-0.8-1.5c-0.7-0.9-1.7-1.5-2.9-1.7
		c-0.4-0.1-0.9-0.1-1.4-0.1c-0.6,0-1.1,0.1-1.7,0.2c-1,0.2-1.9,0.8-2.5,1.6c-0.9,1.2-1.4,3-1.4,5.4
		C544.4,174.2,544.6,175.5,545,176.6z M590.7,176.6c0.2,0.5,0.5,1.1,0.8,1.5c1,1.3,2.4,1.9,4.2,1.9c0.6,0,1.2-0.1,1.7-0.2
		c1-0.3,1.9-0.8,2.5-1.7c1-1.2,1.4-3.1,1.4-5.5c0-1.5-0.2-2.8-0.6-3.9c-0.2-0.6-0.5-1.1-0.8-1.5c-0.7-0.9-1.7-1.5-2.9-1.7
		c-0.4-0.1-0.9-0.1-1.4-0.1c-0.6,0-1.1,0.1-1.7,0.2c-1,0.2-1.9,0.8-2.5,1.6c-0.9,1.2-1.4,3-1.4,5.4
		C590.1,174.2,590.3,175.5,590.7,176.6z M526.3,166.1c-0.4,0.2-0.8,0.6-1.1,1c-0.3,0.4-0.5,0.9-0.7,1.3c-0.3,0.9-0.5,2-0.6,3.3
		c0,0.3,0,0.6,0,0.9c0,0.6,0,1.3,0.1,1.9c0.1,1.3,0.4,2.3,0.9,3.1c0.1,0.2,0.2,0.4,0.4,0.6c0.9,1.1,2.3,1.7,4.2,1.7
		c0.5,0,1.1-0.1,1.6-0.2c0.9-0.3,1.8-0.9,2.3-1.7c0.4-0.5,0.6-1.1,0.8-1.7c0.2-0.6,0.3-1.2,0.4-1.8c0.1-0.6,0.1-1.3,0.1-1.9
		c0-0.6,0-1.3-0.1-1.9c-0.2-1.5-0.6-2.7-1.2-3.5c-0.6-0.9-1.6-1.5-2.6-1.7c-0.4-0.1-0.9-0.1-1.3-0.1
		C528.1,165.4,527.1,165.6,526.3,166.1z"/>
</g>
<g>
	<circle class="st2" cx="84.9" cy="278.2" r="22"/>
	<circle class="st2" cx="173.1" cy="278.2" r="22"/>
</g>
<g>
	<g>
		<rect x="81.7" y="321.8" class="st2" width="107.7" height="90.7"/>
		<circle class="st2" cx="58.6" cy="333.3" r="11.3"/>
		<circle class="st2" cx="58.6" cy="401.2" r="11.3"/>
	</g>
	<circle class="st2" cx="58.6" cy="367.2" r="5.7"/>
</g>
<rect x="106.5" y="98.3" class="st2" width="53.9" height="4.3"/>
</svg>
